<?xml version='1.0' encoding='iso-8859-1'?>
<svg version="1.1" xmlns="http://www.w3.org/2000/svg" viewBox="0 0 44 44" xmlns:xlink="http://www.w3.org/1999/xlink" enable-background="new 0 0 44 44" style="fill:#374353;">
  <g>
    <path d="m22,0c-12.2,0-22,9.8-22,22s9.8,22 22,22 22-9.8 22-22-9.8-22-22-22zm12,20h-1.5c-0.3,0-0.5,0.2-0.5,0.5v12.5c0,0.6-0.4,1-1,1h-18c-0.6,0-1-0.4-1-1v-12.5c0-0.3-0.2-0.5-0.5-0.5h-1.5c-0.6,0-1-0.4-1-1 0-0.3 0.2-0.7 0.4-0.8l12-8c0.2-0.1 0.3-0.2 0.6-0.2s0.4,0.1 0.6,0.2l12,8c0.3,0.2 0.4,0.5 0.4,0.8 0,0.6-0.4,1-1,1z"/>
    <path d="m22.3,14.8c-0.2-0.1-0.4-0.1-0.6,0l-5.5,3.7c-0.1,0.1-0.2,0.2-0.2,0.4v10.6c0,0.3 0.2,0.5 0.5,0.5h3c0.3,0 0.5-0.2 0.5-0.5v-4.5c0-0.6 0.4-1 1-1h2c0.6,0 1,0.4 1,1v4.5c0,0.3 0.2,0.5 0.5,0.5h3c0.3,0 0.5-0.2 0.5-0.5v-10.6c0-0.2-0.1-0.3-0.2-0.4l-5.5-3.7z"/>
  </g>
</svg>
