<svg height="512pt" viewBox="0 0 512 512" width="512pt" xmlns="http://www.w3.org/2000/svg" 
xmlns:xlink="http://www.w3.org/1999/xlink"><linearGradient id="a" gradientUnits="userSpaceOnUse" 
x1="0" x2="512" y1="256" y2="256"><stop offset="0" stop-color="#00f38d"/><stop offset="1" stop-color="#009eff"/>
</linearGradient><path d="m512 256c0 141.386719-114.613281 256-256 256s-256-114.613281-256-256 114.613281-256
 256-256 256 114.613281 256 256zm0 0" fill="#374353"/><g fill="#fff">
 <path d="m386.402344 110.59375h-14.273438v-26.613281h-30v26.613281h-172.257812v-26.613281h-30v26.613281h-14.273438c-22.945312 0-41.613281 18.667969-41.613281 41.613281v234.195313c0 22.945312 18.667969 41.613281 41.613281 41.613281h90.480469v-30h-90.480469c-6.40625 0-11.613281-5.207031-11.613281-11.613281v-173.953125h284.035156v52.199219h30v-112.4375c0-22.949219-18.667969-41.617188-41.617187-41.617188zm-272.421875 71.855469v-30.238281c0-6.40625 5.210937-11.613282 11.613281-11.613282h14.273438v26.613282h30v-26.613282h172.261718v26.613282h30v-26.613282h14.273438c6.402344 0 11.613281 5.207032 11.613281 11.613282v30.238281zm0 0"/>
 <path d="m136.242188 238.699219h26.613281v26.613281h-26.613281zm0 0"/>
 <path d="m189.46875 238.699219h26.609375v26.613281h-26.609375zm0 0"/>
 <path d="m242.691406 238.699219h26.613282v26.613281h-26.613282zm0 0"/>
 <path d="m295.921875 238.699219h26.609375v26.613281h-26.609375zm0 0"/>
 <path d="m349.148438 238.699219h26.613281v26.613281h-26.613281zm0 0"/>
 <path d="m136.242188 291.929688h26.613281v26.609374h-26.613281zm0 0"/>
 <path d="m189.46875 291.929688h26.609375v26.609374h-26.609375zm0 0"/>
 <path d="m242.691406 291.929688h26.613282v26.609374h-26.613282zm0 0"/>
 <path d="m295.921875 291.929688h26.609375v26.609374h-26.609375zm0 0"/>
 <path d="m136.242188 345.152344h26.613281v26.613281h-26.613281zm0 0"/>
 <path d="m189.46875 345.152344h26.609375v26.613281h-26.609375zm0 0"/>
 <path d="m349.148438 320.234375h29.125l-45.542969 45.429687-31.53125-28.847656-66.691407 69.832032 21.695313 20.722656 46.410156-48.597656 31.015625 28.371093 64.390625-64.234375v28.191406h30v-80.867187h-78.871093zm0 0"
/></g></svg>