<svg height="512pt" viewBox="0 0 512.00025 512" width="512pt" xmlns="http://www.w3.org/2000/svg"><path d="m252.953125 273.039062 20.160156-20.15625 57.847657 57.84375-20.160157 20.160157zm0 0" fill="#5de0bf"/><path d="m328.007812 167.675781c0 88.503907-71.75 160.253907-160.253906 160.253907-88.507812 0-160.253906-71.75-160.253906-160.253907 0-88.503906 71.746094-160.253906 160.253906-160.253906 88.503906 0 160.253906 71.75 160.253906 160.253906zm0 0" fill="#76ffd9"/><path d="m291.109375 167.675781c0 68.128907-55.226563 123.355469-123.355469 123.355469s-123.355468-55.226562-123.355468-123.355469c0-68.128906 55.226562-123.355469 123.355468-123.355469s123.355469 55.226563 123.355469 123.355469zm0 0" fill="#fff"/><path d="m498.769531 476.679688-22.011719 22.011718c-7.65625 7.65625-20.070312 7.65625-27.730468 0l-152.851563-152.851562c-7.65625-7.65625-7.65625-20.070313 0-27.730469l22.011719-22.011719c7.65625-7.65625 20.070312-7.65625 27.730469 0l152.851562 152.851563c7.65625 7.65625 7.65625 20.070312 0 27.730469zm0 0" fill="#76ffd9"/><path d="m345.914062 296.097656 152.851563 152.851563c7.660156 7.664062 7.660156 20.074219.007813 27.726562l-14.792969 14.789063c7.65625-7.652344 7.65625-20.066406-.003907-27.726563l-152.855468-152.851562c-7.652344-7.652344-20.066406-7.652344-27.71875 0l14.789062-14.789063c7.65625-7.652344 20.066406-7.652344 27.722656 0zm0 0" fill="#5de0bf"/><g fill="#ffc843"><path d="m395.949219 445.617188 49.738281-49.742188 20.304688 20.304688-49.738282 49.742187zm0 0"/><path d="m167.753906 204.21875c-9.664062 0-17.5-7.835938-17.5-17.5 0-16.765625 9.671875-32.042969 24.640625-38.917969 6.5-2.988281 10.414063-9.550781 9.96875-16.722656-.527343-8.4375-7.542969-15.457031-15.984375-15.980469-4.8125-.304687-9.378906 1.335938-12.863281 4.609375-3.484375 3.277344-5.40625 7.71875-5.40625 12.5 0 9.664063-7.835937 17.5-17.5 17.5s-17.5-7.835937-17.5-17.5c0-14.332031 5.992187-28.183593 16.4375-38.003906 10.59375-9.957031 24.4375-14.945313 39-14.039063 26.167969 1.625 47.125 22.578126 48.75 48.746094 1.347656 21.722656-10.542969 41.621094-30.292969 50.695313-2.582031 1.1875-4.25 3.976562-4.25 7.109375 0 9.667968-7.835937 17.503906-17.5 17.503906zm0 0"/><path d="m167.753906 257.398438c-9.664062 0-17.5-7.832032-17.5-17.5v-1.140626c0-9.667968 7.835938-17.503906 17.5-17.503906 9.664063 0 17.5 7.835938 17.5 17.503906v1.140626c0 9.667968-7.835937 17.5-17.5 17.5zm0 0"/></g><path d="m504.074219 443.644531-152.855469-152.851562c-5.117188-5.121094-11.925781-7.941407-19.167969-7.941407-5.128906 0-10.039062 1.421876-14.289062 4.070313l-17.011719-17.011719c13.65625-17.75 23.671875-38.085937 29.324219-59.789062 1.042969-4.007813-1.359375-8.101563-5.367188-9.148438-4.007812-1.039062-8.105469 1.359375-9.148437 5.367188-6.8125 26.148437-20.570313 50.128906-39.792969 69.347656-59.558594 59.558594-156.464844 59.558594-216.023437 0-28.851563-28.851562-44.742188-67.210938-44.742188-108.011719s15.890625-79.164062 44.742188-108.011719c59.558593-59.558593 156.464843-59.558593 216.023437 0 31.195313 31.191407 47.375 74.347657 44.390625 118.402344-.28125 4.132813 2.84375 7.710938 6.976562 7.988282 4.121094.277343 7.707032-2.84375 7.988282-6.976563 3.277344-48.375-14.488282-95.765625-48.746094-130.023437-65.410156-65.40625-171.832031-65.40625-237.238281 0-31.6875 31.683593-49.136719 73.8125-49.136719 118.621093 0 44.808594 17.449219 86.933594 49.132812 118.617188 32.707032 32.703125 75.664063 49.058593 118.621094 49.058593 36.109375 0 72.21875-11.558593 102.238282-34.667968l17.015624 17.007812c-6.484374 10.453125-5.199218 24.386719 3.863282 33.449219l34.792968 34.792969c2.929688 2.929687 7.679688 2.929687 10.605469 0 2.929688-2.929688 2.929688-7.679688 0-10.605469l-34.792969-34.792969c-4.71875-4.71875-4.71875-12.398437 0-17.121094l22.015626-22.015624c2.285156-2.285157 5.328124-3.542969 8.558593-3.542969 3.234375 0 6.273438 1.257812 8.5625 3.546875l76.53125 76.53125-39.132812 39.132812-22.144531-22.140625c-2.925782-2.929687-7.675782-2.929687-10.605469 0-2.929688 2.929688-2.929688 7.675781 0 10.605469l98.464843 98.464844c5.285157 5.285156 12.226563 7.925781 19.167969 7.925781 6.941407 0 13.882813-2.644531 19.167969-7.925781l22.011719-22.015625c10.566406-10.570313 10.566406-27.765625 0-38.335938zm-206.96875-137.070312-15.617188-15.605469c1.652344-1.523438 3.28125-3.074219 4.882813-4.671875 1.59375-1.59375 3.144531-3.230469 4.667968-4.882813l15.613282 15.613282zm196.363281 164.800781-22.015625 22.011719c-4.71875 4.722656-12.402344 4.722656-17.121094 0l-65.714843-65.710938 39.136718-39.136719 65.714844 65.714844c4.71875 4.71875 4.71875 12.398438 0 17.121094zm0 0" fill="#434c54"/></svg>